<?xml version="1.0" encoding="iso-8859-1"?>
<!-- Generator: Adobe Illustrator 19.0.0, SVG Export Plug-In . SVG Version: 6.00 Build 0)  -->
<svg version="1.1" id="Capa_1" xmlns="http://www.w3.org/2000/svg" xmlns:xlink="http://www.w3.org/1999/xlink" x="0px" y="0px"
	 viewBox="0 0 468.293 468.293" style="enable-background:new 0 0 468.293 468.293;" xml:space="preserve">
<path style="fill:#EBF0F3;" d="M278.496,257.872c64.139,57.539,101.931,112.884,106.521,193.738H83.277
	c4.59-80.853,42.382-136.199,106.521-193.738l26.467-23.743l-26.467-23.689C125.659,152.901,87.867,97.556,83.277,16.702h301.74
	c-4.59,80.854-42.382,136.2-106.521,193.738l-26.466,23.689L278.496,257.872z"/>
<path style="fill:#2F4859;" d="M80.375,33.617h307.543c10.349,0,18.737-7.526,18.737-16.809S398.267,0,387.918,0H80.375
	C70.026,0,61.638,7.526,61.638,16.809S70.026,33.617,80.375,33.617z"/>
<path style="fill:#F7BE56;" d="M171.883,354.643c-38.559,19.982-62.309,56.895-62.309,96.841h249.144
	c0-39.947-23.752-76.859-62.31-96.841l-51.66-26.77c0-64.885,0-81.125,0-146.01l36.52-18.924
	c24.984-12.947,41.752-35.286,46.06-60.418c1.156-6.746-4.574-12.873-12.183-12.873H153.148c-7.609,0-13.34,6.126-12.183,12.873
	c4.308,25.131,21.078,47.471,46.061,60.418l39.053,20.237c0,63.718,0,79.665-0.001,143.384L171.883,354.643z"/>
<path style="fill:#2F4859;" d="M387.918,434.675H80.375c-10.349,0-18.737,7.526-18.737,16.809c0,9.282,8.388,16.809,18.737,16.809
	h307.543c10.349,0,18.737-7.526,18.737-16.809C406.655,442.202,398.267,434.675,387.918,434.675z"/>
<g>
</g>
<g>
</g>
<g>
</g>
<g>
</g>
<g>
</g>
<g>
</g>
<g>
</g>
<g>
</g>
<g>
</g>
<g>
</g>
<g>
</g>
<g>
</g>
<g>
</g>
<g>
</g>
<g>
</g>
</svg>
