<?xml version="1.0" encoding="iso-8859-1"?>
<!-- Generator: Adobe Illustrator 19.0.0, SVG Export Plug-In . SVG Version: 6.00 Build 0)  -->
<svg version="1.1" id="Capa_1" xmlns="http://www.w3.org/2000/svg" xmlns:xlink="http://www.w3.org/1999/xlink" x="0px" y="0px"
	 viewBox="0 0 512 512" style="enable-background:new 0 0 512 512;" xml:space="preserve">
<path style="fill:#F5B955;" d="M361.814,315.256l130.55,130.548c12.855,12.855,12.855,33.698,0,46.555
	c-6.428,6.427-14.852,9.642-23.277,9.642c-8.426,0-16.85-3.213-23.277-9.642l-130.55-130.548"/>
<rect x="324.016" y="330.921" transform="matrix(0.7071 -0.7071 0.7071 0.7071 -147.8403 356.9321)" style="fill:#FFFFFF;" width="65.838" height="52.008"/>
<circle style="fill:#78D2FA;" cx="202.016" cy="201.995" r="191.995"/>
<path style="fill:#C8F5FF;" d="M202.012,341.992c-77.318,0-139.997-62.679-139.997-139.997S124.693,61.999,202.012,61.999
	s139.997,62.679,139.997,139.997S279.33,341.992,202.012,341.992z"/>
<g>
	<path style="fill:#A5DC69;" d="M74.795,143.496l79.066,0.005c7.692,0.001,13.934-6.223,13.955-13.915l0.001-0.608
		c0.021-7.706,6.285-13.935,13.99-13.915c7.706,0.021,13.969-6.209,13.99-13.914l0.008-3.052c0.021-7.706-6.209-13.969-13.915-13.99
		l-55.348-0.047C104.099,98.454,86.04,119.081,74.795,143.496z"/>
	<path style="fill:#A5DC69;" d="M189.787,209.76L189.787,209.76c-6.245-0.017-11.293-5.093-11.277-11.338
		c0.021-7.523-6.062-13.638-13.584-13.658l-30.467-1.404c-8.149-0.375-15.72-4.315-20.703-10.773l-22.453-29.097l-16.506,0.002
		c-8.202,17.803-12.783,37.616-12.783,58.503c0,49.237,25.422,92.531,63.852,117.488l3.403-1.032l15.449-17.001
		c3.089-3.399,7.473-5.332,12.066-5.319c8.971,0.024,16.264-7.229,16.288-16.2l0.064-23.492c0.017-6.245,5.093-11.294,11.338-11.277
		l5.219,0.014c6.245,0.017,11.321-5.032,11.338-11.277l0.035-12.804C201.081,214.853,196.032,209.777,189.787,209.76z"/>
	<path style="fill:#A5DC69;" d="M297.409,159.387c-3.027,5.063-8.735,7.617-14.366,6.528c-3.666-0.709-7.845-1.509-11.427-2.191
		c-5.188-0.988-10.472,1.126-13.551,5.418l-13.897,19.374c-4.882,6.807-2.494,16.368,5.016,20.079l5.435,2.685
		c1.564,0.773,2.965,1.84,4.125,3.144l17.966,20.182c3.767,4.232,4.509,10.358,1.862,15.367l-25.681,48.587
		c-5.916,11.193-2.913,23.348,4.722,30.991c0,0,0.285,0.227,0.777,0.616c49.238-21.69,83.616-70.911,83.616-128.169
		c0-27.478-7.923-53.103-21.599-74.726l-3.75-0.077L297.409,159.387z"/>
	<path style="fill:#A5DC69;" d="M217.557,62.863l28.845,28.185c2.258,2.263,2.824,5.712,1.408,8.578
		c-0.728,8.211,5.972,15.17,14.205,14.754l47-2.646C286.481,85.045,254.145,66.905,217.557,62.863z"/>
</g>
<path d="M202.012,351.992c82.708,0,149.996-67.288,149.996-149.996S284.72,51.999,202.012,51.999S52.015,119.287,52.015,201.995
	S119.302,351.992,202.012,351.992z M261.326,317.652c-1.868-3.983-2.407-9.099,0.406-14.422l25.681-48.586
	c4.574-8.652,3.275-19.377-3.233-26.688l-17.966-20.183c-2.024-2.274-4.435-4.111-7.165-5.459l-5.435-2.686
	c-1.29-0.637-1.733-1.737-1.883-2.336c-0.15-0.599-0.276-1.779,0.563-2.948l13.897-19.374c0.805-1.122,2.198-1.679,3.554-1.423
	c3.572,0.681,7.742,1.478,11.398,2.185c9.726,1.883,19.712-2.625,24.847-11.214l12.306-20.584
	c8.766,17.486,13.71,37.204,13.71,58.06C332.008,252.321,303.261,296.058,261.326,317.652z M253.481,83.984l-2.324-2.329
	c12.743,5.223,24.476,12.412,34.825,21.189l-24.515,1.549c-1.38,0.052-2.293-0.658-2.71-1.091c-0.318-0.331-0.789-0.951-0.946-1.842
	C259.693,95.356,258.1,88.613,253.481,83.984z M129.739,93.993l52.125,0.115c1.424,0.004,2.36,0.731,2.791,1.165
	c0.431,0.434,1.154,1.373,1.15,2.797l-0.008,3.052c-0.004,1.425-0.732,2.361-1.166,2.792c-0.432,0.43-1.368,1.15-2.786,1.15
	c-0.024,0-0.051,0-0.078,0c-13.176,0-23.914,10.703-23.95,23.89l-0.001,0.605c-0.006,2.174-1.779,3.942-3.953,3.942l0,0
	l-62.286-0.009C101.36,117.78,114.394,104.296,129.739,93.993z M81.453,153.381c0.457,0.064,0.919,0.108,1.393,0.108l3.542,0.001
	l19.451,25.205c6.792,8.801,17.055,14.142,28.159,14.653l30.467,1.404c0.145,0.007,0.289,0.01,0.433,0.011
	c1.306,0.003,2.163,0.67,2.558,1.067c0.395,0.397,1.057,1.259,1.054,2.563c-0.016,5.691,2.187,11.048,6.2,15.084
	c4.014,4.035,9.358,6.266,15.049,6.281c0.359,0.001,0.67,0.131,0.923,0.385c0.253,0.255,0.381,0.566,0.38,0.926l-0.035,12.804
	c-0.001,0.359-0.131,0.67-0.385,0.923c-0.254,0.252-0.564,0.38-0.921,0.38c-0.001,0-0.003,0-0.004,0l-5.219-0.014
	c-0.01,0-0.019,0-0.028,0c-5.51,0-9.984,4.459-10,9.973c-0.015,5.523,4.45,10.012,9.973,10.027l5.219,0.014c0.02,0,0.039,0,0.059,0
	c11.721,0,21.273-9.52,21.305-21.249l0.035-12.804c0.032-11.749-9.5-21.332-21.249-21.365c-0.359-0.001-0.67-0.13-0.923-0.385
	c-0.253-0.254-0.381-0.566-0.38-0.925c0.017-6.31-2.424-12.248-6.874-16.722c-4.391-4.416-10.22-6.882-16.438-6.962l-30.28-1.395
	c-5.224-0.241-10.052-2.753-13.247-6.894l-10.02-12.984l42.206,0.006c0.002,0,0.002,0,0.003,0
	c13.171-0.001,23.916-10.716,23.952-23.89l0.001-0.605c0.006-2.176,1.778-3.942,3.952-3.942c0.024,0,0.052,0,0.078,0
	c6.373,0,12.368-2.474,16.889-6.97c4.536-4.512,7.044-10.52,7.062-16.917l0.008-3.052c0.018-6.398-2.458-12.42-6.97-16.956
	s-10.52-7.044-16.923-7.061l-3.243-0.007c7.579-1.376,15.379-2.1,23.345-2.1c3.981,0,7.919,0.19,11.81,0.542
	c0.037,0.038,0.068,0.079,0.105,0.117l24.247,24.3c-0.161,0.583-0.27,1.181-0.323,1.785c-0.603,6.798,1.767,13.516,6.5,18.432
	c4.456,4.628,10.587,7.222,16.977,7.222c0.397,0,0.796-0.01,1.195-0.03c0.042-0.002,0.083-0.004,0.125-0.007l41.558-2.626
	c0.775,0.985,1.533,1.984,2.28,2.991l-17.657,29.532c-0.856,1.433-2.343,2.14-3.884,1.841c-3.675-0.711-7.864-1.512-11.453-2.196
	c-8.979-1.711-18.221,1.983-23.547,9.413l-13.897,19.374c-4.042,5.635-5.396,12.726-3.715,19.453
	c1.681,6.728,6.21,12.348,12.427,15.419l5.435,2.686c0.414,0.205,0.779,0.483,1.086,0.827l17.966,20.182
	c0.986,1.108,1.184,2.734,0.49,4.045l-25.681,48.587c-5.31,10.045-5.542,21.593-1.181,31.523
	c-12.855,4.267-26.591,6.585-40.859,6.585c-21.133,0-41.102-5.073-58.76-14.059l8.867-9.758c3.714-4.087,3.412-10.412-0.675-14.126
	c-4.087-3.713-10.411-3.412-14.126,0.675l-11.431,12.579c-32.618-23.643-53.876-62.038-53.876-105.31
	C72.015,184.816,75.372,168.407,81.453,153.381z"/>
<path d="M499.434,438.733L371.882,311.182c20.32-31.503,32.124-68.991,32.124-109.186C404.006,90.615,313.391,0,202.011,0
	c-39.722,0-78.166,11.523-111.178,33.323c-4.608,3.043-5.877,9.247-2.834,13.855c3.043,4.607,9.246,5.878,13.855,2.834
	C131.586,30.377,166.22,20,202.012,20c100.353,0,181.996,81.643,181.996,181.996s-81.643,181.996-181.996,181.996
	S20.016,302.348,20.016,201.995c0-34.728,9.813-68.489,28.376-97.634c2.967-4.658,1.596-10.84-3.062-13.807
	c-4.659-2.967-10.84-1.596-13.807,3.062c-20.613,32.36-31.507,69.837-31.507,108.378c0,111.38,90.615,201.995,201.995,201.995
	c40.188,0,77.671-11.802,109.171-32.115l33.919,33.919c0.001,0.001,0.001,0.002,0.002,0.003s0.002,0.002,0.003,0.003l93.63,93.63
	c8.106,8.106,18.885,12.57,30.348,12.57c11.463,0,22.24-4.464,30.348-12.571C516.167,482.695,516.167,455.466,499.434,438.733z
	 M360.055,327.639l24.628,24.628c-0.421,0.306-0.829,0.637-1.208,1.017l-31.3,31.3l-24.534-24.533
	C339.627,350.503,350.507,339.625,360.055,327.639z M485.293,485.287c-4.33,4.329-10.086,6.713-16.208,6.713
	c-6.123,0-11.878-2.384-16.207-6.713l-86.562-86.561l31.3-31.3c0.379-0.38,0.711-0.788,1.017-1.209l86.658,86.657
	C494.228,461.81,494.228,476.351,485.293,485.287z"/>
<path d="M173.072,289.929c2.63,0,5.21-1.06,7.07-2.93c1.86-1.86,2.93-4.44,2.93-7.07s-1.07-5.21-2.93-7.07
	c-1.86-1.86-4.44-2.93-7.07-2.93s-5.21,1.07-7.07,2.93s-2.93,4.44-2.93,7.07s1.07,5.21,2.93,7.07
	C167.861,288.868,170.442,289.929,173.072,289.929z"/>
<path d="M64.265,78.264c2.63,0,5.21-1.07,7.07-2.93s2.93-4.44,2.93-7.07s-1.07-5.21-2.93-7.07c-1.86-1.86-4.44-2.93-7.07-2.93
	c-2.63,0-5.21,1.07-7.07,2.93c-1.86,1.86-2.93,4.43-2.93,7.07c0,2.63,1.07,5.21,2.93,7.07
	C59.055,77.194,61.634,78.264,64.265,78.264z"/>
<g>
</g>
<g>
</g>
<g>
</g>
<g>
</g>
<g>
</g>
<g>
</g>
<g>
</g>
<g>
</g>
<g>
</g>
<g>
</g>
<g>
</g>
<g>
</g>
<g>
</g>
<g>
</g>
<g>
</g>
</svg>
